PathFileType	4	(X/Y/Z)	C:\Users\Basilio\Documents\Thesis Gigler\squatting_fais\c3dfiles\019\SJ_pre2\markers_experimental.trc
DataRate	CameraRate	NumFrames	NumMarkers	Units	OrigDataRate	OrigDataStartFrame	OrigNumFrames
200.000000	200.000000	4	59	mm	200.000000	0	1278
Frame#	Time	FHD			LBHD			RBHD			C7			T10			CLAV			LSHO			LUUPA			LMUPA			LDUPA			LLEP			LMEP			LRAD			LUL			LRFIN			RSHO			RUPA1			RMUPA			RDUPA			RLEP			RMEP			RRAD			RUL			RUFIN			LASI			RASI			USACR			LSACR			RSACR			LTHI1			LTHI2			LTHI3			LTHI4			LLFC			LTIB1			LTIB2			LTIB3			LTIB4			LLMAL			LMMAL			LHEE			LMT1			LMT2			LMT5			RTHI			RTHI2			RTHI3			RTHI4			RLFC			RTIB1			RTIB2			RTIB3			RTIB4			RLMAL			RMMAL			RHEE			RMT1			RMT2			RMT5			
		X1	Y1	Z1	X2	Y2	Z2	X3	Y3	Z3	X4	Y4	Z4	X5	Y5	Z5	X6	Y6	Z6	X7	Y7	Z7	X8	Y8	Z8	X9	Y9	Z9	X10	Y10	Z10	X11	Y11	Z11	X12	Y12	Z12	X13	Y13	Z13	X14	Y14	Z14	X15	Y15	Z15	X16	Y16	Z16	X17	Y17	Z17	X18	Y18	Z18	X19	Y19	Z19	X20	Y20	Z20	X21	Y21	Z21	X22	Y22	Z22	X23	Y23	Z23	X24	Y24	Z24	X25	Y25	Z25	X26	Y26	Z26	X27	Y27	Z27	X28	Y28	Z28	X29	Y29	Z29	X30	Y30	Z30	X31	Y31	Z31	X32	Y32	Z32	X33	Y33	Z33	X34	Y34	Z34	X35	Y35	Z35	X36	Y36	Z36	X37	Y37	Z37	X38	Y38	Z38	X39	Y39	Z39	X40	Y40	Z40	X41	Y41	Z41	X42	Y42	Z42	X43	Y43	Z43	X44	Y44	Z44	X45	Y45	Z45	X46	Y46	Z46	X47	Y47	Z47	X48	Y48	Z48	X49	Y49	Z49	X50	Y50	Z50	X51	Y51	Z51	X52	Y52	Z52	X53	Y53	Z53	X54	Y54	Z54	X55	Y55	Z55	X56	Y56	Z56	X57	Y57	Z57	X58	Y58	Z58	X59	Y59	Z59	

1	0	-187.48291015625	1698.980590820313	-856.8500976562502	-322.2405395507813	1634.834350585938	-985.1668090820315	-309.0403747558594	1627.674072265625	-846.0308227539065	-327.7190246582032	1468.704956054688	-918.151062011719	-360.2238159179688	1173.619018554688	-915.296813964844	-195.024642944336	1417.101318359375	-926.0979614257815	-264.2920532226563	1455.367553710938	-1079.38134765625	-273.8866271972657	1305.605224609375	-1178.553955078125	-257.9906311035157	1265.11669921875	-1154.885620117188	-279.5173645019532	1244.778442382813	-1207.649658203125	-313.5130920410157	1185.282592773438	-1256.447387695313	-370.0600280761719	1163.250610351563	-1224.657592773438	-240.7396697998047	979.8609619140627	-1122.386108398438	-216.4738769531251	961.6345825195315	-1182.8701171875	-192.8739013671876	970.6904907226565	-1089.271240234375	-247.237289428711	1450.724731445313	-776.814880371094	-311.0642089843751	1319.426879882813	-638.9943847656251	-274.4980773925782	1285.868286132813	-639.9902343750001	-311.1069030761719	1260.83447265625	-600.0437011718751	-304.0905456542969	1186.027465820313	-570.2019042968751	-365.4415588378907	1176.447387695313	-590.7431640625001	-248.6707153320313	985.2272949218752	-718.3121337890626	-217.980697631836	960.3417968750002	-665.8081665039064	-198.4197540283204	960.9211425781252	-757.9078369140626	-182.8628540039063	968.9266357421877	-1032.25146484375	-172.6542510986328	968.1226806640627	-822.267517089844	-344.1209411621094	1041.246459960938	-919.8242797851565	-349.3667602539063	1007.808044433594	-947.0178833007815	-344.5764160156251	1008.698120117188	-890.801940917969	-277.3008422851563	722.1385498046876	-1119.92333984375	-248.3870544433594	641.4310302734376	-1123.903198242188	-202.0671081542969	642.4337158203126	-1111.591552734375	-280.5097656250001	590.4027099609376	-1113.8779296875	-291.4827270507813	493.3364257812501	-1104.776245117188	-248.685287475586	352.3232421875001	-1091.651611328125	-310.7564392089844	315.6871643066407	-1142.302978515625	-272.5363769531251	308.7307128906251	-1124.324584960938	-272.2189331054688	225.9562377929688	-1098.6298828125	-344.9203796386719	98.13144683837893	-1124.819580078125	-320.7079162597657	98.5065612792969	-1049.377075195313	-402.9935913085939	47.43467330932618	-1075.400268554688	-182.369873046875	56.66037750244142	-1083.807006835938	-187.605697631836	57.40167236328126	-1126.16259765625	-234.2821044921876	34.86813354492188	-1175.897583007813	-241.3037719726563	788.3941650390627	-729.8399658203126	-210.3285064697266	732.9281616210939	-729.7324218750001	-181.4868621826172	725.3322753906251	-746.8555908203126	-244.8239288330079	654.4948730468751	-719.4342041015626	-299.7789001464844	494.3482055664064	-736.2689819335939	-256.6334228515626	308.6145324707032	-758.0930786132814	-320.9417114257813	236.1995239257813	-703.1303710937501	-281.5720214843751	231.1842651367188	-727.3115844726564	-281.8263549804688	183.2942810058594	-762.0330200195314	-350.2733764648438	99.94541168212893	-719.9016113281251	-317.7257080078126	97.62238311767581	-789.7283935546877	-390.8415527343751	43.99088668823243	-774.8502197265627	-184.2546691894532	53.8473358154297	-737.7607421875001	-193.4155426025391	59.93454742431642	-691.6859741210939	-244.0903015136719	40.43146133422852	-650.0259399414064	
2	0.005	-187.517807006836	1698.850463867188	-856.8735351562502	-322.1424255371094	1634.861572265625	-985.2349243164065	-309.0126647949219	1627.663330078125	-846.0986938476565	-327.7906799316407	1468.631713867188	-918.197448730469	-360.1571044921876	1173.623901367188	-915.3670043945315	-195.0184631347657	1417.08642578125	-926.1204833984377	-264.1920471191407	1455.319091796875	-1079.405029296875	-273.8638610839844	1305.5537109375	-1178.572265625	-257.8975524902344	1265.097045898438	-1154.928466796875	-279.4742431640626	1244.71484375	-1207.65478515625	-313.7096252441407	1185.102172851563	-1256.239379882813	-370.0618896484376	1163.154907226563	-1224.697998046875	-240.6593475341797	979.856384277344	-1122.370971679688	-216.4839782714844	961.6197509765627	-1182.869018554688	-192.8961029052735	970.7126464843752	-1089.33447265625	-247.2373962402344	1450.724853515625	-776.8150634765627	-311.0661315917969	1319.4365234375	-639.0028076171876	-274.6176452636719	1285.833618164063	-639.9853515625001	-311.2443237304688	1260.796752929688	-600.0964355468751	-304.2488098144532	1185.930053710938	-570.2225341796876	-365.5382995605469	1176.400390625	-590.8171997070314	-248.6782226562501	985.2302856445315	-718.3394775390626	-218.0296630859376	960.217956542969	-665.7707519531251	-198.4452209472657	960.923278808594	-757.8901977539064	-182.8931121826172	968.917663574219	-1032.221923828125	-172.6974487304688	968.118103027344	-822.216003417969	-344.1003112792969	1041.245239257813	-919.8558349609377	-349.3546752929688	1007.795959472656	-947.0380859375002	-344.5872192382813	1008.742126464844	-890.8018188476565	-277.1627197265626	722.1457519531251	-1119.913696289063	-248.3851013183594	641.4347534179689	-1123.899047851563	-202.0067596435547	642.4352416992189	-1111.570556640625	-280.3895874023438	590.3696899414064	-1113.870971679688	-291.3767089843751	493.3218994140626	-1104.768920898438	-248.6699829101563	352.2981872558594	-1091.585327148438	-310.7297973632813	315.7209167480469	-1142.321533203125	-272.4334411621094	308.7414855957032	-1124.289184570313	-272.2594299316407	225.9698791503907	-1098.655883789063	-344.8621215820313	98.14458465576175	-1124.83203125	-320.7690124511719	98.53044891357425	-1049.382690429688	-403.0149536132814	47.43668746948243	-1075.376708984375	-182.3437652587891	56.66070556640626	-1083.792724609375	-188.1500854492188	57.71292877197267	-1126.220458984375	-234.2769165039063	34.86001586914063	-1175.85107421875	-241.2507629394532	788.3453369140627	-729.8170166015626	-210.2697753906251	732.9722900390626	-729.7111816406251	-181.4156799316407	725.2977294921876	-746.8051147460939	-244.7784423828126	654.4780883789064	-719.4168701171876	-299.9338073730469	494.4864501953126	-736.3036499023439	-256.6659545898438	308.5878601074219	-758.1004028320314	-320.9747009277344	236.1956329345704	-703.1166381835939	-281.5720214843751	231.1842651367188	-727.3115844726564	-281.8145141601563	183.2760467529297	-762.0037231445314	-350.2562255859376	99.95632934570315	-719.8908081054689	-317.7122802734376	97.6565856933594	-789.7408447265627	-390.8245544433595	43.9785270690918	-774.852722167969	-184.2912902832032	53.86248016357423	-737.7911376953126	-193.4393005371094	59.91924285888673	-691.7354125976564	-244.0574798583985	40.43230438232423	-650.0011596679689	
3	0.01	-187.4639129638672	1698.752685546875	-856.902282714844	-322.1135559082032	1634.862548828125	-985.3004150390627	-308.9681701660157	1627.748168945313	-846.159362792969	-327.7575988769532	1468.647827148438	-918.2510375976565	-360.1387939453126	1173.657470703125	-915.335876464844	-194.9372863769532	1417.032470703125	-926.1281738281252	-264.1623535156251	1455.275268554688	-1079.458618164063	-273.7563171386719	1305.505615234375	-1178.602294921875	-257.7354125976563	1265.061279296875	-1154.920166015625	-279.3585815429688	1244.677612304688	-1207.690551757813	-313.6888427734376	1185.068481445313	-1256.262573242188	-370.0800781250001	1163.10302734375	-1224.721923828125	-240.5802307128907	979.8259887695315	-1122.347534179688	-216.3471679687501	961.5833129882815	-1182.839965820313	-192.8181762695313	970.7099609375002	-1089.27490234375	-247.2433624267579	1450.6640625	-776.8109130859377	-311.1747436523438	1319.447998046875	-639.0429687500001	-274.6679077148438	1285.810180664063	-639.9832763671876	-311.3316345214844	1260.84228515625	-600.1203002929689	-304.3727111816407	1185.887573242188	-570.2356567382814	-365.5264282226563	1176.407348632813	-590.8331298828126	-248.6847076416016	985.2846679687502	-718.3411254882814	-217.9616241455079	960.2828369140627	-665.7034301757814	-198.4588928222657	960.9682617187502	-757.8980102539064	-182.7941436767578	968.9133300781252	-1032.208984375	-172.7703399658203	968.1079711914065	-822.175720214844	-344.1167907714844	1041.268676757813	-919.8533325195315	-349.3404235839844	1007.816345214844	-947.035339355469	-344.5764160156251	1008.698120117188	-890.801940917969	-277.1565246582032	722.1146850585939	-1119.912231445313	-248.2744750976563	641.4214477539064	-1123.847412109375	-201.9602661132813	642.4247436523439	-1111.521606445313	-280.3851928710938	590.3645019531251	-1113.861206054688	-291.3782348632813	493.3233337402345	-1104.816772460938	-248.5861968994141	352.2731018066407	-1091.589599609375	-310.6901550292969	315.7058715820313	-1142.287475585938	-272.4004821777344	308.7311706542969	-1124.313598632813	-272.2036437988282	225.939926147461	-1098.629150390625	-344.9019165039063	98.16642761230472	-1124.808471679688	-320.7135009765626	98.51747131347659	-1049.382446289063	-403.0149230957032	47.43669509887696	-1075.376708984375	-182.3349761962891	56.64391708374025	-1083.790161132813	-187.51171875	57.42416763305665	-1126.114624023438	-234.2981109619141	34.84624099731446	-1175.868041992188	-241.2914733886719	788.3380126953127	-729.8121948242189	-210.3116760253907	732.9774169921876	-729.6296386718751	-181.5035705566407	725.3516235351564	-746.6613159179689	-244.8545684814454	654.4967041015626	-719.3755493164064	-299.7668151855469	494.359588623047	-736.2817382812501	-256.5879516601563	308.6329345703126	-758.0523681640626	-320.9324645996094	236.1680755615235	-703.1295166015626	-281.5877685546876	231.1474304199219	-727.3214111328126	-281.8127136230469	183.3096313476563	-761.9550781250001	-350.2819824218751	99.97290039062503	-719.9205322265626	-317.7122802734376	97.6565856933594	-789.7408447265627	-391.0298156738282	44.21531677246094	-774.7657470703127	-184.2660064697266	53.84599685668947	-737.7655639648439	-193.4248657226563	59.91212463378908	-691.6947021484376	-244.0903015136719	40.43146133422852	-650.0259399414064	
4	0.015	-187.3402557373047	1698.56201171875	-856.8440551757815	-321.9598999023438	1634.850708007813	-985.3441162109377	-308.8837280273438	1627.721069335938	-846.2342529296877	-327.6924133300782	1468.639038085938	-918.2943115234377	-360.0071716308594	1173.62744140625	-915.3859863281252	-194.9360961914063	1416.982666015625	-926.1304931640627	-264.0753479003907	1455.2216796875	-1079.499633789063	-273.6894836425782	1305.438354492188	-1178.613891601563	-257.7509155273438	1264.983642578125	-1154.9677734375	-279.3677062988282	1244.617797851563	-1207.71435546875	-313.5727844238282	1185.02734375	-1256.259765625	-369.9016113281251	1163.090087890625	-1224.723022460938	-240.4998168945313	979.8027954101565	-1122.308959960938	-216.2709960937501	961.559265136719	-1182.7880859375	-192.7764892578126	970.669128417969	-1089.289794921875	-247.2328033447266	1450.685302734375	-776.859558105469	-311.2026367187501	1319.421142578125	-639.0621337890626	-274.7360229492188	1285.76220703125	-640.0406494140626	-311.3662414550782	1260.802368164063	-600.1288452148439	-304.4364318847657	1185.98974609375	-570.2335815429689	-365.6594543457032	1176.401733398438	-590.8657836914064	-248.7189025878907	985.2957153320315	-718.3672485351564	-217.9916992187501	960.311462402344	-665.6657104492189	-198.4429168701172	961.0103759765627	-757.8897094726564	-182.6942138671875	968.9432373046877	-1032.130737304688	-172.7587127685547	968.1538696289065	-822.1323852539065	-344.0363464355469	1041.269165039063	-919.902038574219	-349.3533630371094	1007.801574707031	-947.0393066406252	-344.6936340332032	1008.769653320313	-890.8123779296877	-277.0451660156251	722.1418457031251	-1119.867797851563	-248.1323394775391	641.4260864257814	-1123.829467773438	-201.9051513671876	642.4209594726564	-1111.519897460938	-280.3775939941407	590.3556518554689	-1113.855102539063	-291.3782348632813	493.3233337402345	-1104.816772460938	-248.6038208007813	352.2695617675782	-1091.568481445313	-310.7289733886719	315.6602783203126	-1142.296142578125	-272.4235229492188	308.7098388671876	-1124.306884765625	-272.1675109863282	225.9278564453126	-1098.64013671875	-344.8570251464844	98.14578247070315	-1124.827514648438	-320.6801452636719	98.49239349365237	-1049.372192382813	-403.0149230957032	47.43610382080079	-1075.376831054688	-182.3773803710938	56.62293243408205	-1083.808349609375	-187.5925750732422	57.40198135375978	-1126.160766601563	-234.311264038086	34.8662452697754	-1175.841552734375	-241.3442077636719	788.3438110351565	-729.7356567382814	-210.3161010742188	732.9835815429689	-729.6227416992189	-181.4990539550782	725.3233032226564	-746.6663818359376	-244.8404541015626	654.5559082031251	-719.3782958984376	-299.7857360839844	494.3560180664064	-736.2721557617189	-256.6342163085938	308.6139831542969	-758.0580444335939	-320.9194030761719	236.1885986328126	-703.1538085937501	-281.5877685546876	231.1474304199219	-727.3214111328126	-281.8209838867188	183.3057098388672	-761.9984130859376	-350.2562255859376	99.95632934570315	-719.8908081054689	-317.7122802734376	97.6565856933594	-789.7408447265627	-390.9920654296876	44.15307235717774	-774.7876586914065	-184.3230438232422	53.87833404541017	-737.8053588867189	-193.3719940185547	59.91659545898439	-691.7171020507814	-244.0481109619141	40.46455383300782	-649.9961547851564	
